<?xml version="1.0" encoding="utf-8"?>
<?xml-stylesheet type="text/xsl" href="rss1.xsl"?>
<rss version="2.0" xmlns:atom="http://www.w3.org/2005/Atom" xmlns:content="http://purl.org/rss/1.0/modules/content/" xmlns:dc="http://purl.org/dc/elements/1.1/" xmlns:media="http://search.yahoo.com/mrss/">
<channel>
 <title>Getty</title>
 <link>http://www.gettyimg.com/</link>
 <atom:link href="http://www.gettyimg.com/" rel="self" type="application/rss+xml" />

 
                <item>
                <title><![CDATA[【HD Live Performances】HDTV - Guns N' Roses - Live @ Glastonbury 2023 HDTV H264 1080i DD2.0-ilya2129]]></title>
                <link><![CDATA[https://sharemania.us/threads/guns-n-roses-live-glastonbury-2023-hdtv-h264-1080i-dd2-0-ilya2129.223350/]]></link>
                <description><![CDATA[<article>
<blockquote class="messageText SelectQuoteContainer ugc baseHtml">
<div style="text-align: center"><img src="https://i122.fastpic.org/big/2023/0623/b4/b37c6294354538a70aac338bdf3af5b4.png?r=1" class="bbCodeImage LbImage" alt="[​IMG]" data-url="https://i122.fastpic.org/big/2023/0623/b4/b37c6294354538a70aac338bdf3af5b4.png?r=1" style=""><br>
<br>
<a href="https://postimg.cc/mtVX85hr" target="_blank" class="externalLink" rel="nofollow"><img src="https://i.postimg.cc/mtVX85hr/vlcsnap-2023-06-25-13h37m21s144.png" class="bbCodeImage LbImage" alt="[​IMG]" data-url="https://i.postimg.cc/mtVX85hr/vlcsnap-2023-06-25-13h37m21s144.png"></a> <a href="https://postimg.cc/MMytRshq" target="_blank" class="externalLink" rel="nofollow"><img src="https://i.postimg.cc/MMytRshq/vlcsnap-2023-06-25-13h37m23s895.png" class="bbCodeImage LbImage" alt="[​IMG]" data-url="https://i.postimg.cc/MMytRshq/vlcsnap-2023-06-25-13h37m23s895.png"></a> <a href="https://postimg.cc/XGMQrM1s" target="_blank" class="externalLink" rel="nofollow"><img src="https://i.postimg.cc/XGMQrM1s/vlcsnap-2023-06-25-13h37m27s174.png" class="bbCodeImage LbImage" alt="[​IMG]" data-url="https://i.postimg.cc/XGMQrM1s/vlcsnap-2023-06-25-13h37m27s174.png"></a> <a href="https://postimg.cc/ns93VV2s" target="_blank" class="externalLink" rel="nofollow"><img src="https://i.postimg.cc/ns93VV2s/vlcsnap-2023-06-25-13h37m38s644.png" class="bbCodeImage LbImage" alt="[​IMG]" data-url="https://i.postimg.cc/ns93VV2s/vlcsnap-2023-06-25-13h37m38s644.png"></a> <a href="https://postimg.cc/k2pjdRQ3" target="_blank" class="externalLink" rel="nofollow"><img src="https://i.postimg.cc/k2pjdRQ3/vlcsnap-2023-06-25-13h37m41s542.png" class="bbCodeImage LbImage" alt="[​IMG]" data-url="https://i.postimg.cc/k2pjdRQ3/vlcsnap-2023-06-25-13h37m41s542.png"></a> <a href="https://postimg.cc/fSDCvcNX" target="_blank" class="externalLink" rel="nofollow"><img src="https://i.postimg.cc/fSDCvcNX/vlcsnap-2023-06-25-13h37m45s333.png" class="bbCodeImage LbImage" alt="[​IMG]" data-url="https://i.postimg.cc/fSDCvcNX/vlcsnap-2023-06-25-13h37m45s333.png"></a> <br>
<br>
<i><br>
It's So Easy<br>
Bad Obsession<br>
Chinese Democracy<br>
Slither (Velvet Revolver cover)<br>
Welcome to the Jungle<br>
Mr. Brownstone<br>
Pretty Tied Up<br>
Double Talkin' Jive<br>
Estranged<br>
Live and Let Die (Wings cover)<br>
Reckless Life<br>
T.V. Eye (The Stooges cover) (Duff on vocals)<br>
Down on the Farm<br>
Rocket Queen<br>
Absurd<br>
Civil War (Jimi Hendrix's "Voodoo Child" outro)<br>
You Could Be Mine (followed by band introductions)<br>
Slash Guitar Solo<br>
Sweet Child o' Mine<br>
November Rain<br>
Patience<br>
Hard Skool<br>
Knockin' on Heaven's Door (Bob Dylan cover) (Alice Cooper’s “Only Women Bleed” intro)<br>
Nightrain<br>
Paradise City (with Dave Grohl) (on guitar &amp; background vocals)<br>
</i><br>
<br>
​</div><br>
<div class="bbCodeBlock bbCodeCode">
<div class="type">Code:</div>
<pre>General
ID                                       : 1 (0x1)
Complete name                            : D:\Guns N' Roses - Live @ Glastonbury 2023 HDTV H264 1080i DD2.0-ilya2129.ts
Format                                   : MPEG-TS
File size                                : 5.78 GiB
Duration                                 : 2 h 26 min
Overall bit rate mode                    : Variable
Overall bit rate                         : 5 669 kb/s
Frame rate                               : 25.000 FPS

Video
ID                                       : 302 (0x12E)
Menu ID                                  : 1 (0x1)
Format                                   : AVC
Format/Info                              : Advanced Video Codec
Format profile                           : High@L4
Format settings                          : CABAC / 4 Ref Frames
Format settings, CABAC                   : Yes
Format settings, Reference frames        : 4 frames
Codec ID                                 : 27
Duration                                 : 2 h 26 min
Bit rate                                 : 5 195 kb/s
Width                                    : 1 920 pixels
Height                                   : 1 080 pixels
Display aspect ratio                     : 16:9
Frame rate                               : 25.000 FPS
Standard                                 : Component
Color space                              : YUV
Chroma subsampling                       : 4:2:0
Bit depth                                : 8 bits
Scan type                                : MBAFF
Scan type, store method                  : Separated fields
Scan order                               : Top Field First
Bits/(Pixel*Frame)                       : 0.100
Stream size                              : 5.30 GiB (92%)
Color range                              : Limited
Color primaries                          : BT.709
Transfer characteristics                 : BT.709
Matrix coefficients                      : BT.709

Audio
ID                                       : 303 (0x12F)
Menu ID                                  : 1 (0x1)
Format                                   : AC-3
Format/Info                              : Audio Coding 3
Commercial name                          : Dolby Digital
Codec ID                                 : 6
Duration                                 : 2 h 26 min
Bit rate mode                            : Constant
Bit rate                                 : 192 kb/s
Channel(s)                               : 2 channels
Channel layout                           : L R
Sampling rate                            : 48.0 kHz
Frame rate                               : 31.250 FPS (1536 SPF)
Compression mode                         : Lossy
Delay relative to video                  : -40 ms
Stream size                              : 201 MiB (3%)
Language                                 : English
Service kind                             : Complete Main

Text #1
ID                                       : 310 (0x136)-888
Menu ID                                  : 1 (0x1)
Format                                   : Teletext Subtitle
Language                                 : English
Language, more info                      : For hearing impaired people

Text #2
ID                                       : 4503 (0x1197)
Menu ID                                  : 1 (0x1)
Format                                   : DVB Subtitle
Codec ID                                 : 6
Duration                                 : 2 h 25 min
Delay relative to video                  : -200 ms
Language                                 : English
</pre>
</div>
<div class="bbCodeBlock bbCodeVfcHH HiddenContent">
<div class="attribution type">Hidden Content:</div>
<blockquote>You must reply before you can see the hidden data contained here.</blockquote>
</div>
<div class="messageTextEndMarker">&nbsp;</div>
</blockquote>
</article>]]></description>
                <author><![CDATA[ilya2129]]></author>
                </item>

                
                <item>
                <title><![CDATA[【HD Live Performances】WEB-RiP - Christine and the Queens - Live @ Glastonbury 2023 WEB-DL H264 1080p AAC2.0-ilya2129]]></title>
                <link><![CDATA[https://sharemania.us/threads/christine-and-the-queens-live-glastonbury-2023-web-dl-h264-1080p-aac2-0-ilya2129.223351/]]></link>
                <description><![CDATA[<article>
<blockquote class="messageText SelectQuoteContainer ugc baseHtml">
<div style="text-align: center"><img src="https://i122.fastpic.org/big/2023/0623/b4/b37c6294354538a70aac338bdf3af5b4.png?r=1" class="bbCodeImage LbImage" alt="[​IMG]" data-url="https://i122.fastpic.org/big/2023/0623/b4/b37c6294354538a70aac338bdf3af5b4.png?r=1" style=""><br>
<br>
<a href="https://postimg.cc/QVghxhYn" target="_blank" class="externalLink" rel="nofollow"><img src="https://i.postimg.cc/QVghxhYn/vlcsnap-2023-06-25-13h41m18s222.png" class="bbCodeImage LbImage" alt="[​IMG]" data-url="https://i.postimg.cc/QVghxhYn/vlcsnap-2023-06-25-13h41m18s222.png"></a> <a href="https://postimg.cc/1f9P82LR" target="_blank" class="externalLink" rel="nofollow"><img src="https://i.postimg.cc/1f9P82LR/vlcsnap-2023-06-25-13h41m19s468.png" class="bbCodeImage LbImage" alt="[​IMG]" data-url="https://i.postimg.cc/1f9P82LR/vlcsnap-2023-06-25-13h41m19s468.png"></a> <a href="https://postimg.cc/p9ntNHnC" target="_blank" class="externalLink" rel="nofollow"><img src="https://i.postimg.cc/p9ntNHnC/vlcsnap-2023-06-25-13h41m20s703.png" class="bbCodeImage LbImage" alt="[​IMG]" data-url="https://i.postimg.cc/p9ntNHnC/vlcsnap-2023-06-25-13h41m20s703.png"></a> <a href="https://postimg.cc/0bcvDZsY" target="_blank" class="externalLink" rel="nofollow"><img src="https://i.postimg.cc/0bcvDZsY/vlcsnap-2023-06-25-13h41m22s483.png" class="bbCodeImage LbImage" alt="[​IMG]" data-url="https://i.postimg.cc/0bcvDZsY/vlcsnap-2023-06-25-13h41m22s483.png"></a> <a href="https://postimg.cc/VJv8RMf3" target="_blank" class="externalLink" rel="nofollow"><img src="https://i.postimg.cc/VJv8RMf3/vlcsnap-2023-06-25-13h41m23s956.png" class="bbCodeImage LbImage" alt="[​IMG]" data-url="https://i.postimg.cc/VJv8RMf3/vlcsnap-2023-06-25-13h41m23s956.png"></a> <a href="https://postimg.cc/LJWM0Xhh" target="_blank" class="externalLink" rel="nofollow"><img src="https://i.postimg.cc/LJWM0Xhh/vlcsnap-2023-06-25-13h41m26s374.png" class="bbCodeImage LbImage" alt="[​IMG]" data-url="https://i.postimg.cc/LJWM0Xhh/vlcsnap-2023-06-25-13h41m26s374.png"></a> <br>
<br>
<i><br>
Tears Can Be So Soft<br>
Marvin descending<br>
Full of life<br>
Angels crying in my bed<br>
Track 10<br>
I met an angel<br>
True Love<br>
We have to be friends<br>
To Be Honest<br>
I feel like an angel<br>
Big eye<br>
</i><br>
<br>
​</div><br>
<div class="bbCodeBlock bbCodeCode">
<div class="type">Code:</div>
<pre>General
Complete name                            : D:\Christine and the Queens - Live @ Glastonbury 2023 WEB-DL H264 1080p AAC2.0-ilya2129.mp4
Format                                   : MPEG-4
Format profile                           : Base Media
Codec ID                                 : isom (isom/iso2/avc1/mp41)
File size                                : 2.29 GiB
Duration                                 : 1 h 14 min
Overall bit rate mode                    : Variable
Overall bit rate                         : 4 418 kb/s
Frame rate                               : 50.000 FPS
Collection                               : Glastonbury: 2023
Season                                   : 2023
Album                                    : Glastonbury: 2023
Album/Performer                          : BBC TV
Part/Position                            : 2023
Track name                               : Christine and the Queens
Grouping                                 : Music,Pop &amp; Chart,Performances &amp; Events
Performer                                : BBC Music
Composer                                 : BBC iPlayer
Genre                                    : Music
ContentType                              : TV Show
Description                              : A charismatic and mesmerising performance of electro-pop goodness.
Recorded date                            : 2023-06-25 07:58:48 UTC
Tagged date                              : 2023-06-25 07:58:48 UTC
Copyright                                : 2023 British Broadcasting Corporation, all rights reserved
Cover                                    : Yes
Lyrics                                   : A charismatic and mesmerising performance of electro-pop goodness. /  / PLAY: https://www.bbc.co.uk/iplayer/episode/p0ft6v6z /  / INFO: https://www.bbc.co.uk/programmes/p0ft6v6z
Comment                                  : A charismatic and mesmerising performance of electro-pop goodness.
Part_ID                                  : p0ft6v6z
TVNetworkName                            : BBC Music
LongDescription                          : A charismatic and mesmerising performance of electro-pop goodness. /  / PLAY: https://www.bbc.co.uk/iplayer/episode/p0ft6v6z /  / INFO: https://www.bbc.co.uk/programmes/p0ft6v6z

Video
ID                                       : 1
Format                                   : AVC
Format/Info                              : Advanced Video Codec
Format profile                           : High@L4.2
Format settings                          : CABAC / 4 Ref Frames
Format settings, CABAC                   : Yes
Format settings, Reference frames        : 4 frames
Codec ID                                 : avc1
Codec ID/Info                            : Advanced Video Coding
Duration                                 : 1 h 14 min
Bit rate mode                            : Variable
Bit rate                                 : 4 282 kb/s
Maximum bit rate                         : 12.0 Mb/s
Width                                    : 1 920 pixels
Height                                   : 1 080 pixels
Display aspect ratio                     : 16:9
Frame rate mode                          : Constant
Frame rate                               : 50.000 FPS
Color space                              : YUV
Chroma subsampling                       : 4:2:0
Bit depth                                : 8 bits
Scan type                                : Progressive
Bits/(Pixel*Frame)                       : 0.041
Stream size                              : 2.22 GiB (97%)
Color range                              : Limited
Color primaries                          : BT.709
Transfer characteristics                 : BT.709
Matrix coefficients                      : BT.709
Codec configuration box                  : avcC

Audio
ID                                       : 2
Format                                   : AAC LC
Format/Info                              : Advanced Audio Codec Low Complexity
Codec ID                                 : mp4a-40-2
Duration                                 : 1 h 14 min
Bit rate mode                            : Variable
Bit rate                                 : 128 kb/s
Maximum bit rate                         : 131 kb/s
Channel(s)                               : 2 channels
Channel layout                           : L R
Sampling rate                            : 48.0 kHz
Frame rate                               : 46.875 FPS (1024 SPF)
Compression mode                         : Lossy
Stream size                              : 68.0 MiB (3%)
Language                                 : English
Default                                  : Yes
Alternate group                          : 1

</pre>
</div>
<div class="bbCodeBlock bbCodeVfcHH HiddenContent">
<div class="attribution type">Hidden Content:</div>
<blockquote>You must reply before you can see the hidden data contained here.</blockquote>
</div>
<div class="messageTextEndMarker">&nbsp;</div>
</blockquote>
</article>]]></description>
                <author><![CDATA[ilya2129]]></author>
                </item>

                </channel></rss>